<?xml version="1.0" encoding="UTF-8" standalone="no"?>
<!DOCTYPE svg PUBLIC "-//W3C//DTD SVG 1.1//EN" "http://www.w3.org/Graphics/SVG/1.1/DTD/svg11.dtd">
<svg version="1.1" xmlns="http://www.w3.org/2000/svg" xmlns:xlink="http://www.w3.org/1999/xlink" preserveAspectRatio="xMidYMid meet" viewBox="0 0 240 240" width="240" height="240"><defs><path d="M130 10C135.52 10 140 14.48 140 20C140 26 140 34 140 40C140 45.53 135.52 50 130 50C124 50 116 50 110 50C104.47 50 100 45.53 100 40C100 34 100 26 100 20C100 14.48 104.47 10 110 10C116 10 124 10 130 10Z" id="a3LH26JdOn"></path><path d="M40 100C45.52 100 50 104.47 50 110C50 116 50 124 50 130C50 135.52 45.52 140 40 140C34 140 26 140 20 140C14.47 140 10 135.52 10 130C10 124 10 116 10 110C10 104.47 14.47 100 20 100C26 100 34 100 40 100Z" id="c4P2vXA5Hd"></path><path d="M220 100C225.52 100 230 104.47 230 110C230 116 230 124 230 130C230 135.52 225.52 140 220 140C214 140 206 140 200 140C194.48 140 190 135.52 190 130C190 124 190 116 190 110C190 104.47 194.48 100 200 100C206 100 214 100 220 100Z" id="d2VYb5tlkX"></path><path d="M130 190C135.52 190 140 194.47 140 200C140 206 140 214 140 220C140 225.52 135.52 230 130 230C124 230 116 230 110 230C104.47 230 100 225.52 100 220C100 214 100 206 100 200C100 194.47 104.47 190 110 190C116 190 124 190 130 190Z" id="ct6QjLcx"></path><path d="M100 31.56L30 100" id="hcSpydiYO"></path><path d="M210 100L140 28.07" id="d12COoTkgh"></path><path d="M140 210L210 140" id="c3HA0ehvPX"></path><path d="M30 140L100 210" id="b2Ed8J5Gr5"></path><path d="M190 120L52.11 120" id="ehiZ7j6nU"></path><path d="M120 190L120 50" id="a1aMnJl3Ln"></path></defs><g><g><g><use xlink:href="#a3LH26JdOn" opacity="1" fill="#35517e" fill-opacity="1"></use><g><use xlink:href="#a3LH26JdOn" opacity="1" fill-opacity="0" stroke="#6bb3a5" stroke-width="3" stroke-opacity="1"></use></g></g><g><use xlink:href="#c4P2vXA5Hd" opacity="1" fill="#35517e" fill-opacity="1"></use><g><use xlink:href="#c4P2vXA5Hd" opacity="1" fill-opacity="0" stroke="#6bb3a5" stroke-width="3" stroke-opacity="1"></use></g></g><g><use xlink:href="#d2VYb5tlkX" opacity="1" fill="#35517e" fill-opacity="1"></use><g><use xlink:href="#d2VYb5tlkX" opacity="1" fill-opacity="0" stroke="#6bb3a5" stroke-width="3" stroke-opacity="1"></use></g></g><g><use xlink:href="#ct6QjLcx" opacity="1" fill="#35517e" fill-opacity="1"></use><g><use xlink:href="#ct6QjLcx" opacity="1" fill-opacity="0" stroke="#6bb3a5" stroke-width="3" stroke-opacity="1"></use></g></g><g><g><use xlink:href="#hcSpydiYO" opacity="1" fill-opacity="0" stroke="#6bb3a5" stroke-width="2" stroke-opacity="1"></use></g></g><g><g><use xlink:href="#d12COoTkgh" opacity="1" fill-opacity="0" stroke="#6bb3a5" stroke-width="2" stroke-opacity="1"></use></g></g><g><g><use xlink:href="#c3HA0ehvPX" opacity="1" fill-opacity="0" stroke="#6bb3a5" stroke-width="2" stroke-opacity="1"></use></g></g><g><g><use xlink:href="#b2Ed8J5Gr5" opacity="1" fill-opacity="0" stroke="#6bb3a5" stroke-width="2" stroke-opacity="1"></use></g></g><g><g><use xlink:href="#ehiZ7j6nU" opacity="1" fill-opacity="0" stroke="#6bb3a5" stroke-width="2" stroke-opacity="1"></use></g></g><g><g><use xlink:href="#a1aMnJl3Ln" opacity="1" fill-opacity="0" stroke="#6bb3a5" stroke-width="2" stroke-opacity="1"></use></g></g></g></g></svg>